<?xml version="1.0" standalone="no"?>
<!DOCTYPE svg PUBLIC "-//W3C//DTD SVG 20010904//EN"
 "http://www.w3.org/TR/2001/REC-SVG-20010904/DTD/svg10.dtd">
<svg version="1.0" xmlns="http://www.w3.org/2000/svg"
 width="512.000000pt" height="512.000000pt" viewBox="0 0 512.000000 512.000000"
 preserveAspectRatio="xMidYMid meet">
<metadata>
Created by potrace 1.15, written by Peter Selinger 2001-2017
</metadata>
<g transform="translate(0.000000,512.000000) scale(0.100000,-0.100000)"
fill="#000000" stroke="none">
<path d="M2610 5113 c-24 -2 -49 -8 -55 -13 -5 -4 -38 -19 -73 -33 -135 -55
-280 -178 -353 -301 -19 -31 -40 -56 -49 -56 -48 1 -33 22 136 190 96 96 180
183 185 193 8 14 5 17 -17 17 -21 0 -65 -38 -213 -185 l-187 -185 -64 0 -64 0
177 178 c97 98 177 181 177 185 0 4 -12 7 -26 7 -21 0 -66 -39 -213 -185 -179
-177 -188 -185 -240 -196 -30 -6 -70 -18 -90 -26 -28 -12 7 28 167 189 111
112 202 207 202 211 0 4 -12 7 -27 7 -23 0 -183 -155 -981 -952 -524 -524
-962 -965 -973 -981 -11 -15 -19 -37 -17 -50 4 -18 111 84 646 618 484 481
639 631 627 603 -8 -21 -20 -61 -26 -90 -11 -53 -13 -55 -630 -673 -514 -516
-619 -625 -619 -648 0 -15 3 -27 7 -27 4 0 281 273 614 606 l607 607 7 -58 8
-57 -622 -622 c-516 -517 -621 -626 -621 -649 0 -15 3 -27 7 -27 4 0 287 279
629 621 540 540 622 618 627 598 4 -16 -1 -27 -21 -42 -70 -54 -149 -154 -184
-235 -16 -38 -123 -150 -539 -567 -430 -431 -519 -525 -519 -548 0 -15 3 -27
7 -27 4 0 231 223 504 496 l497 497 -5 -69 -5 -69 -499 -500 c-413 -414 -499
-506 -499 -528 0 -15 3 -27 7 -27 4 0 229 221 499 491 270 270 494 487 497
483 2 -5 8 -29 12 -53 l7 -43 -511 -512 c-426 -427 -511 -516 -511 -539 0 -23
3 -26 18 -18 9 5 242 235 517 510 275 276 503 501 506 501 3 0 14 -18 24 -41
l19 -40 -542 -542 c-449 -450 -542 -547 -542 -570 0 -15 3 -27 7 -27 4 0 254
246 555 547 l548 548 29 -35 30 -35 -585 -585 c-485 -486 -584 -590 -584 -613
0 -15 3 -27 7 -27 4 0 275 267 603 594 l595 595 35 -30 34 -29 -637 -638
c-530 -530 -637 -642 -637 -665 0 -15 3 -27 7 -27 4 0 301 293 659 651 l651
651 43 -22 43 -22 -702 -702 c-584 -585 -701 -706 -701 -729 0 -15 3 -27 7
-27 4 0 332 324 728 720 l721 721 52 -13 53 -12 -780 -781 c-652 -652 -781
-785 -781 -808 0 -15 3 -27 7 -27 4 0 364 356 799 791 l791 791 17 -48 16 -48
-815 -816 c-681 -681 -815 -820 -815 -843 0 -15 3 -27 7 -27 4 0 375 367 824
816 l816 816 17 -48 16 -48 -840 -841 c-707 -708 -840 -845 -840 -868 0 -23 3
-26 18 -18 9 5 390 384 847 840 l830 831 16 -48 17 -47 -864 -865 c-728 -729
-864 -870 -864 -893 0 -23 3 -26 18 -18 9 5 402 395 872 865 l855 856 16 -48
17 -47 -889 -890 c-749 -750 -889 -895 -889 -918 0 -23 3 -26 18 -18 9 5 411
404 892 885 481 482 878 876 881 876 4 0 12 -21 19 -46 l13 -46 -911 -912
c-769 -768 -912 -916 -912 -939 0 -23 3 -26 18 -18 9 5 422 415 917 910 495
496 903 901 906 901 4 0 12 -21 19 -46 l13 -46 -911 -912 c-502 -501 -912
-915 -912 -919 0 -4 12 -7 27 -7 23 0 173 146 919 891 490 490 894 887 896
883 3 -5 11 -26 18 -48 l12 -38 -836 -837 c-460 -460 -836 -840 -836 -844 0
-4 12 -7 27 -7 23 0 162 134 845 817 766 766 818 815 826 792 28 -75 83 -13
-729 -824 -413 -413 -755 -758 -760 -768 -8 -14 -5 -17 18 -17 23 0 146 118
769 741 l741 741 17 -48 16 -48 -685 -686 c-377 -377 -685 -689 -685 -693 0
-4 12 -7 27 -7 23 0 139 112 694 667 l667 666 15 -49 15 -49 -609 -610 c-335
-336 -609 -614 -609 -618 0 -4 12 -7 27 -7 23 0 127 100 618 590 l591 591 16
-50 15 -49 -524 -523 c-288 -288 -529 -532 -534 -541 -8 -15 -5 -18 18 -18 23
0 113 86 544 516 l517 516 12 -52 13 -52 -457 -457 c-251 -251 -456 -460 -456
-464 0 -4 12 -7 27 -7 22 0 104 77 463 435 239 239 438 435 441 435 4 0 12
-21 19 -46 l13 -46 -381 -382 c-210 -210 -382 -385 -382 -389 0 -4 12 -7 27
-7 22 0 92 65 388 360 198 198 363 360 367 360 3 0 11 -21 17 -47 l12 -46
-305 -307 c-168 -168 -306 -309 -306 -313 0 -4 12 -7 27 -7 21 0 81 54 314
286 157 157 289 282 292 277 2 -4 10 -25 17 -47 l12 -38 -231 -232 c-127 -128
-231 -235 -231 -239 0 -4 12 -7 27 -7 21 0 69 43 239 212 135 134 215 206 218
197 2 -8 9 -30 15 -48 l11 -35 -155 -156 c-85 -86 -155 -159 -155 -163 0 -4
12 -7 26 -7 20 0 58 31 164 136 l138 135 16 -47 16 -48 -80 -82 c-44 -45 -80
-84 -80 -88 0 -3 11 -6 25 -6 16 0 46 20 88 60 l65 60 16 -50 c9 -28 14 -55
11 -60 -4 -6 23 -10 68 -10 98 0 118 15 147 112 l21 73 1210 1210 c1015 1016
1209 1215 1209 1238 0 15 -3 27 -7 27 -4 0 -540 -532 -1190 -1182 l-1182
-1182 29 94 29 94 1161 1161 c974 974 1160 1165 1160 1188 0 15 -3 27 -7 27
-4 0 -518 -510 -1141 -1133 -624 -622 -1131 -1123 -1128 -1112 3 11 15 52 27
90 l21 70 1114 1115 c934 936 1114 1120 1114 1143 0 15 -3 27 -7 27 -4 0 -497
-489 -1095 -1087 l-1088 -1088 25 80 c14 44 25 84 25 90 0 5 482 491 1070
1080 896 897 1070 1075 1070 1098 0 15 -3 27 -7 27 -4 0 -475 -467 -1046
-1037 -572 -571 -1036 -1029 -1033 -1018 3 11 15 52 27 90 l21 70 1019 1020
c854 855 1019 1025 1019 1048 0 15 -3 27 -7 27 -4 0 -454 -447 -1000 -992
l-993 -993 25 80 c14 44 25 84 25 90 0 5 439 449 975 985 816 816 975 980 975
1003 0 15 -3 27 -7 27 -4 0 -432 -424 -951 -942 -519 -519 -941 -934 -938
-923 3 11 15 52 27 90 l21 70 924 925 c773 775 924 930 924 953 0 15 -3 27 -7
27 -4 0 -412 -404 -905 -897 l-898 -898 25 80 c14 44 25 84 25 90 0 5 396 406
880 890 735 736 880 885 880 908 0 15 -3 27 -7 27 -4 0 -389 -381 -855 -847
-467 -467 -848 -845 -848 -841 0 4 12 44 26 90 l26 83 829 830 c693 694 829
835 829 858 0 15 -3 27 -7 27 -4 0 -369 -361 -810 -802 l-803 -803 25 80 c14
44 25 84 25 89 0 14 143 157 190 189 63 43 165 143 208 202 19 28 291 307 604
620 471 473 568 575 568 598 0 15 -3 27 -7 27 -4 0 -243 -235 -532 -522 -288
-288 -521 -514 -517 -504 4 10 14 49 23 85 l16 66 508 510 c421 423 509 516
509 538 0 15 -3 27 -7 27 -4 0 -232 -224 -505 -497 l-498 -498 0 65 0 65 505
505 c418 419 505 511 505 533 0 15 -3 27 -7 27 -4 0 -233 -225 -509 -501
l-501 -501 -13 52 -12 52 521 522 c431 432 521 526 521 549 0 15 -3 27 -7 27
-4 0 -242 -235 -529 -521 l-522 -522 -22 43 -22 43 496 496 c273 273 496 500
496 504 0 4 -12 7 -27 7 -22 0 -111 -83 -508 -480 l-480 -479 -22 34 c-13 19
-23 38 -23 42 0 5 189 197 421 428 231 231 425 428 430 438 8 14 5 17 -18 17
-22 0 -99 -72 -448 -420 l-421 -420 -32 33 -32 33 371 369 c204 204 375 378
380 388 8 14 5 17 -18 17 -22 0 -91 -64 -398 -370 l-371 -371 -36 29 -36 29
324 324 c179 178 330 332 335 342 8 14 5 17 -18 17 -22 0 -85 -58 -354 -327
l-328 -326 -41 18 c-22 10 -40 21 -40 24 0 3 129 134 286 291 157 157 290 293
295 303 8 14 5 17 -17 17 -23 0 -81 -54 -324 -295 -279 -279 -298 -295 -322
-286 -14 5 -28 20 -31 33 -6 20 28 58 248 278 140 141 255 259 255 263 0 4
-12 7 -27 7 -21 0 -73 -46 -263 -235 l-236 -235 -21 43 -21 44 175 174 c96 96
179 182 184 192 8 14 5 17 -17 17 -21 0 -62 -35 -195 -167 l-169 -167 -29 35
-29 34 124 126 c68 69 124 129 124 132 0 4 -12 7 -26 7 -19 0 -54 -28 -140
-112 l-115 -112 -31 32 -32 31 72 75 c40 40 72 77 72 80 0 3 -11 6 -25 6 -17
0 -47 -21 -93 -64 l-68 -65 -34 22 c-19 11 -37 22 -39 24 -2 1 11 19 30 40 32
37 32 38 10 41 -12 2 -37 -7 -56 -22 -18 -14 -37 -26 -41 -26 -22 0 -93 34
-88 42 3 5 -9 9 -28 9 -18 -1 -98 1 -178 3 -80 2 -165 2 -190 -1z m130 -216
c0 -1 -340 -342 -755 -757 -753 -752 -756 -755 -749 -710 17 108 11 102 471
562 347 347 443 438 468 442 39 8 67 37 93 96 14 32 64 88 168 192 151 148
152 149 249 171 24 6 55 8 55 4z m167 -16 c8 -4 -294 -313 -816 -835 l-829
-829 -11 39 c-6 21 -11 46 -11 54 0 8 354 369 788 803 l787 788 40 -7 c22 -3
46 -9 52 -13z m115 -42 l41 -21 -859 -859 c-472 -472 -862 -859 -866 -859 -3
0 -16 16 -29 36 l-22 36 844 844 c464 464 845 844 847 844 1 0 21 -9 44 -21z
m120 -86 l29 -27 -858 -858 c-472 -472 -862 -858 -868 -858 -5 0 -23 11 -40
25 l-30 24 860 860 c473 474 864 861 869 861 6 0 23 -12 38 -27z m88 -110 l21
-37 -827 -827 c-897 -897 -828 -835 -903 -807 -23 8 27 61 825 859 467 467
852 849 855 849 4 0 17 -17 29 -37z m59 -140 l12 -47 -742 -742 c-800 -800
-759 -764 -861 -764 -31 0 16 49 767 800 440 440 803 800 806 800 4 0 12 -21
18 -47z m-1354 11 c13 -5 -36 -60 -216 -240 -128 -128 -236 -231 -241 -228 -4
3 -8 28 -8 57 l0 52 182 182 c179 179 184 183 225 183 23 0 49 -3 58 -6z m124
-45 l34 -21 -278 -278 -279 -279 -20 45 -19 46 254 254 c140 140 258 254 264
254 5 0 25 -9 44 -21z m1288 -107 l32 -28 -638 -638 c-581 -581 -640 -637
-659 -627 -11 6 -36 11 -54 11 -31 0 6 39 622 655 360 360 657 655 660 655 3
-1 19 -13 37 -28z m146 -60 l37 -17 -642 -643 -643 -642 -49 16 -48 17 643
643 c354 354 648 644 654 644 5 0 27 -8 48 -18z m125 -68 l34 -27 -607 -607
c-431 -431 -616 -610 -635 -614 -16 -3 -45 -2 -65 1 l-37 6 633 633 c349 349
636 634 638 634 2 0 20 -12 39 -26z m107 -96 l27 -31 -459 -459 c-252 -252
-463 -458 -469 -458 -6 0 -41 -26 -77 -58 -61 -54 -139 -100 -197 -117 -15 -4
203 221 555 574 319 320 583 581 587 581 3 0 18 -14 33 -32z m83 -116 l21 -38
-417 -417 c-229 -229 -422 -417 -427 -417 -6 0 -25 9 -44 21 l-34 21 434 434
c239 239 436 434 440 434 3 0 15 -17 27 -38z m57 -145 l13 -44 -366 -366
c-202 -202 -373 -367 -381 -367 -7 0 -31 5 -53 12 l-39 12 402 402 c222 222
405 402 407 400 2 -2 9 -24 17 -49z m22 -173 l-5 -67 -273 -273 -274 -274 -65
0 -65 0 340 340 c187 187 342 340 344 340 2 0 1 -30 -2 -66z m-67 -260 c-68
-140 -211 -270 -351 -319 -41 -15 -29 -1 171 199 118 119 216 213 218 211 2
-2 -15 -43 -38 -91z m-892 -517 l31 -13 -227 -226 -227 -226 -48 17 -47 16
197 196 c196 194 257 249 279 249 7 0 26 -6 42 -13z m171 -54 c10 -2 -64 -84
-205 -224 l-219 -220 -45 6 c-25 4 -49 9 -54 12 -4 3 92 106 214 228 l222 222
37 -9 c20 -6 43 -12 50 -15z m-24 -243 l-231 -231 -58 7 -58 7 223 223 224
224 65 0 65 0 -230 -230z m-569 31 l-149 -149 -36 15 c-20 8 -39 18 -43 22 -4
4 39 53 97 111 l104 103 83 22 c46 12 85 23 88 24 3 0 -62 -66 -144 -148z
m767 29 c-25 -84 -27 -87 -132 -192 l-106 -108 -65 0 -65 0 195 195 c107 107
195 193 197 192 1 -2 -10 -41 -24 -87z m-915 70 l47 0 -90 -90 c-49 -49 -94
-90 -100 -90 -5 0 -25 9 -44 21 l-34 21 74 74 c42 43 79 72 87 69 8 -3 35 -5
60 -5z m-215 -396 c18 -9 34 -18 36 -21 3 -2 -33 -42 -79 -88 l-85 -85 -16 47
-17 48 56 58 c31 31 60 57 65 57 4 0 22 -7 40 -16z m139 -62 l47 -18 -134
-134 -133 -133 -15 49 -15 49 101 103 c56 56 102 102 102 102 0 0 21 -8 47
-18z m194 -65 c2 -2 -63 -69 -145 -151 l-148 -147 -36 21 c-20 12 -37 25 -37
28 0 4 61 68 136 143 l136 136 46 -13 c25 -8 47 -15 48 -17z m158 -34 c10 -7
-304 -323 -321 -323 -7 0 -28 8 -48 17 l-36 17 153 154 153 153 45 -6 c25 -4
49 -9 54 -12z m149 -21 l37 -7 -178 -178 -178 -178 -47 18 -47 17 167 168
c109 110 175 168 188 167 11 0 37 -3 58 -7z m204 -20 c8 -5 -49 -69 -175 -195
l-188 -188 -52 13 -53 12 183 183 183 183 45 0 c25 0 50 -4 57 -8z m109 -17
c-3 -9 -13 -41 -22 -73 -15 -52 -27 -68 -147 -190 l-132 -132 -45 6 c-25 4
-49 9 -54 12 -4 2 79 92 185 198 176 176 232 223 215 179z m-705 -536 c19 -7
36 -14 38 -16 6 -4 -160 -173 -170 -173 -4 0 -12 21 -19 46 l-13 45 54 55 c58
59 60 59 110 43z m171 -45 l40 -7 -143 -143 c-79 -79 -147 -144 -150 -144 -4
0 -12 21 -19 46 l-13 46 109 109 c64 64 114 107 122 104 8 -3 32 -8 54 -11z
m163 -30 l47 -7 -188 -188 c-176 -176 -189 -187 -213 -178 -14 6 -32 17 -39
27 -11 14 9 37 155 184 92 92 173 168 179 168 6 0 32 -3 59 -6z m159 -22 c3
-5 0 -26 -5 -49 -9 -33 -39 -68 -172 -200 l-162 -161 -49 15 -49 15 194 194
c185 185 225 215 243 186z m-85 -294 c-36 -115 -66 -151 -118 -142 -80 13 -81
8 35 125 60 60 109 109 110 109 1 0 -11 -41 -27 -92z m-121 -373 c4 -3 -35
-47 -85 -96 l-90 -91 -17 48 -16 48 52 54 c53 53 53 54 102 48 27 -3 51 -8 54
-11z"/>
<path d="M203 4958 c-174 -172 -196 -198 -191 -231 3 -19 32 5 192 163 103
102 192 193 197 203 8 14 5 17 -17 17 -21 0 -60 -33 -181 -152z"/>
<path d="M303 4858 c-140 -139 -264 -265 -275 -281 -10 -15 -18 -37 -16 -50 3
-18 49 23 292 263 158 157 292 293 297 303 8 14 5 17 -17 17 -22 0 -75 -47
-281 -252z"/>
<path d="M402 4758 c-194 -194 -362 -365 -373 -381 -11 -15 -19 -37 -17 -50 4
-18 67 40 392 363 213 212 392 393 397 403 8 14 5 17 -18 17 -22 0 -89 -62
-381 -352z"/>
<path d="M502 4658 c-249 -249 -462 -465 -473 -481 -11 -15 -19 -37 -17 -50 4
-18 84 57 492 463 268 267 492 493 497 503 8 14 5 17 -18 17 -22 0 -104 -76
-481 -452z"/>
<path d="M602 4558 c-304 -304 -562 -565 -573 -581 -11 -15 -19 -37 -17 -50 4
-18 101 75 592 563 323 322 592 593 597 603 8 14 5 17 -18 17 -23 0 -118 -91
-581 -552z"/>
<path d="M702 4458 c-359 -359 -662 -665 -673 -681 -11 -15 -19 -37 -17 -50 4
-18 118 92 692 663 378 377 692 693 697 703 8 14 5 17 -18 17 -23 0 -133 -106
-681 -652z"/>
<path d="M802 4358 c-414 -414 -762 -765 -773 -781 -11 -15 -19 -37 -17 -50 4
-18 136 109 792 763 433 432 792 793 797 803 8 14 5 17 -18 17 -23 0 -148
-120 -781 -752z"/>
<path d="M902 4258 c-469 -469 -862 -865 -873 -881 -11 -15 -19 -37 -17 -50 4
-18 153 126 892 863 488 487 892 893 897 903 8 14 5 17 -18 17 -23 0 -162
-135 -881 -852z"/>
<path d="M3896 1250 c-669 -668 -1222 -1223 -1227 -1232 -8 -15 -5 -18 18 -18
23 0 210 183 1211 1182 651 651 1192 1195 1203 1211 11 15 19 37 17 50 -4 18
-210 -183 -1222 -1193z"/>
<path d="M3996 1150 c-614 -613 -1122 -1123 -1127 -1132 -8 -15 -5 -18 18 -18
23 0 196 168 1111 1082 596 596 1092 1095 1103 1111 11 15 19 37 17 50 -4 18
-193 -166 -1122 -1093z"/>
<path d="M4096 1050 c-559 -558 -1022 -1023 -1027 -1033 -8 -14 -5 -17 18 -17
23 0 181 153 1011 983 541 540 992 994 1003 1010 11 15 19 37 17 50 -4 18
-175 -149 -1022 -993z"/>
<path d="M4196 950 c-504 -503 -922 -923 -927 -932 -8 -15 -5 -18 18 -18 23 0
167 139 911 882 486 486 892 895 903 911 11 15 19 37 17 50 -4 18 -158 -132
-922 -893z"/>
<path d="M4296 850 c-449 -448 -822 -823 -827 -832 -8 -15 -5 -18 18 -18 23 0
152 124 811 783 431 430 792 794 803 810 11 15 19 37 17 50 -4 18 -141 -114
-822 -793z"/>
<path d="M4396 750 c-394 -393 -722 -723 -727 -732 -8 -15 -5 -18 18 -18 23 0
137 110 711 683 376 375 692 694 703 710 11 15 19 37 17 50 -4 18 -124 -97
-722 -693z"/>
<path d="M4496 650 c-339 -338 -622 -623 -627 -632 -8 -15 -5 -18 18 -18 23 0
123 95 611 583 321 320 592 594 603 610 11 15 19 37 17 50 -4 18 -106 -80
-622 -593z"/>
<path d="M4596 550 c-284 -283 -522 -523 -527 -533 -8 -14 -5 -17 18 -17 23 0
108 81 511 483 266 265 492 494 503 510 11 15 19 37 17 50 -4 18 -89 -62 -522
-493z"/>
<path d="M4696 450 c-229 -228 -422 -423 -427 -432 -8 -15 -5 -18 18 -18 22 0
93 66 411 383 211 210 392 394 403 410 11 15 19 37 17 50 -4 18 -72 -45 -422
-393z"/>
<path d="M4796 350 c-174 -173 -322 -323 -327 -332 -8 -15 -5 -18 17 -18 23 0
80 52 312 282 156 156 293 295 303 311 11 15 19 37 17 50 -4 18 -54 -28 -322
-293z"/>
<path d="M4896 250 c-119 -118 -222 -223 -227 -232 -8 -15 -5 -18 17 -18 21 0
65 37 211 183 205 202 226 227 221 260 -3 19 -37 -11 -222 -193z"/>
<path d="M4996 150 c-136 -133 -149 -150 -111 -150 18 0 49 23 111 82 102 98
127 130 122 161 -3 19 -19 7 -122 -93z"/>
</g>
</svg>
